{"title":"18+ Tales From The Hood 2 2018 Movies DVDRip x264 AAC +Sample ☻r","magnet":"magnet:?xt=urn:btih:2b982010eada673eb80b09a078f701439581eaff&dn=18%2B+Tales+From+The+Hood+2+2018+Movies+DVDRip+x264+AAC+%2BSample+%E2%98%BBr&tr=udp%3A%2F%2Ftracker.leechers-paradise.org%3A6969&tr=udp%3A%2F%2Fzer0day.ch%3A1337&tr=udp%3A%2F%2Fopen.demonii.com%3A1337&tr=udp%3A%2F%2Ftracker.coppersurfer.tk%3A6969&tr=udp%3A%2F%2Fexodus.desync.com%3A6969","uploader":"basicssom","categoryP":"video","categoryS":"movies","size":"803524040","seeders":"0","leechers":"50","description":"18+ Tales From The Hood 2 2018 Movies DVDRip x264 AAC with Sample &#x263B;rDX&#x263B;\r\n\r\nSCREEN SHOTS &amp; POSTER:\r\n   <a href=\"\nhttp://iphonehosting.eu/2018/9/american/index.html\" rel=\"nofollow\" target=\"_NEW\">\nhttp://iphonehosting.eu/2018/9/american/index.html</a> <a href=\"\nhttp://iphonehosting.eu/2018/9/american/1.html\" rel=\"nofollow\" target=\"_NEW\">\nhttp://iphonehosting.eu/2018/9/american/1.html</a> <a href=\"\nhttp://iphonehosting.eu/2018/9/american/2.html\" rel=\"nofollow\" target=\"_NEW\">\nhttp://iphonehosting.eu/2018/9/american/2.html</a>   <a href=\"\nhttp://iphonehosting.eu/2018/9/american/3.html\" rel=\"nofollow\" target=\"_NEW\">\nhttp://iphonehosting.eu/2018/9/american/3.html</a>   <a href=\"\nhttp://iphonehosting.eu/2018/9/american/4.html\" rel=\"nofollow\" target=\"_NEW\">\nhttp://iphonehosting.eu/2018/9/american/4.html</a>   <a href=\"\nhttp://iphonehosting.eu/2018/9/american/5.html\" rel=\"nofollow\" target=\"_NEW\">\nhttp://iphonehosting.eu/2018/9/american/5.html</a>   <a href=\"\nhttp://iphonehosting.eu/2018/9/american/6.html\" rel=\"nofollow\" target=\"_NEW\">\nhttp://iphonehosting.eu/2018/9/american/6.html</a>   <a href=\"\nhttp://iphonehosting.eu/2018/9/american/7.html\" rel=\"nofollow\" target=\"_NEW\">\nhttp://iphonehosting.eu/2018/9/american/7.html</a>   <a href=\"\nhttp://iphonehosting.eu/2018/9/american/8.html\" rel=\"nofollow\" target=\"_NEW\">\nhttp://iphonehosting.eu/2018/9/american/8.html</a>   <a href=\"\nhttp://iphonehosting.eu/2018/9/american/9.html\" rel=\"nofollow\" target=\"_NEW\">\nhttp://iphonehosting.eu/2018/9/american/9.html</a>   <a href=\"\nhttp://iphonehosting.eu/2018/9/american/10.html\" rel=\"nofollow\" target=\"_NEW\">\nhttp://iphonehosting.eu/2018/9/american/10.html</a>\r\n\r\nFile size                                : 759 MiB\r\nDuration                                 : 1 h 50 min\r\nOverall bit rate mode                    : Constant\r\nOverall bit rate                         : 962 kb/s\r\nMovie name                               : Tales From The Hood 2 2018 Movies DVDRip x264 AAC &#x263B;rDX&#x263B;\r\n\r\nVideo\r\nID                                       : 2\r\nFormat                                   : AVC\r\nFormat/Info                              : Advanced Video Codec\r\nFormat profile                           : Main@L3\r\nFormat settings, CABAC                   : Yes\r\nFormat settings, ReFrames                : 2 frames\r\nFormat settings, GOP                     : M=1, N=25\r\nCodec ID                                 : V_MPEG4/ISO/AVC\r\nDuration                                 : 1 h 50 min\r\nBit rate mode                            : Constant\r\nBit rate                                 : 900 kb/s\r\nWidth                                    : 720 pixels\r\nHeight                                   : 400 pixels\r\nDisplay aspect ratio                     : 16:9\r\nFrame rate mode                          : Constant\r\nFrame rate                               : 29.970 (30000/1001) FPS\r\nColor space                              : YUV\r\nChroma subsampling                       : 4:2:0\r\nBit depth                                : 8 bits\r\nScan type                                : Progressive\r\nBits/(Pixel*Frame)                       : 0.104\r\nStream size                              : 694 MiB (91%)\r\nTitle                                    : &#x263B;rDX&#x263B;\r\nDefault                                  : Yes\r\nForced                                   : No\r\n\r\nAudio\r\nID                                       : 1\r\nFormat                                   : MPEG Audio\r\nFormat version                           : Version 1\r\nFormat profile                           : Layer 3\r\nMode                                     : Joint stereo\r\nCodec ID                                 : A_MPEG/L3\r\nCodec ID/Hint                            : MP3\r\nDuration                                 : 1 h 50 min\r\nBit rate mode                            : Constant\r\nBit rate                                 : 64.0 kb/s\r\nChannel(s)                               : 2 channels\r\nSampling rate                            : 44.1 kHz\r\nCompression mode                         : Lossy\r\nStream size                              : 50.5 MiB (7%)\r\nTitle                                    : &#x263B;rDX&#x263B;\r\nDefault                                  : Yes\r\nForced                                   : No\r\n <a href=\"\nhttps://www.imdb.com/title/tt8403680/\" rel=\"nofollow\" target=\"_NEW\">\nhttps://www.imdb.com/title/tt8403680/</a>","last_updated":"2018-09-22T12:07:37.606Z","parsed":{"xt":"urn:btih:2b982010eada673eb80b09a078f701439581eaff","dn":"18  Tales From The Hood 2 2018 Movies DVDRip x264 AAC  Sample ☻r","tr":["udp://exodus.desync.com:6969","udp://open.demonii.com:1337","udp://tracker.coppersurfer.tk:6969","udp://tracker.leechers-paradise.org:6969","udp://zer0day.ch:1337"],"infoHash":"2b982010eada673eb80b09a078f701439581eaff","infoHashBuffer":{"type":"Buffer","data":[43,152,32,16,234,218,103,62,184,11,9,160,120,247,1,67,149,129,234,255]},"name":"18  Tales From The Hood 2 2018 Movies DVDRip x264 AAC  Sample ☻r","announce":["udp://exodus.desync.com:6969","udp://open.demonii.com:1337","udp://tracker.coppersurfer.tk:6969","udp://tracker.leechers-paradise.org:6969","udp://zer0day.ch:1337"],"urlList":[]}}